<svg version="1.1" id="SINGLE_x5F_COLOR" xmlns="http://www.w3.org/2000/svg" xmlns:xlink="http://www.w3.org/1999/xlink" x="0px"
	 y="0px" viewBox="0 0 311.4 109.9" style="enable-background:new 0 0 311.4 109.9;" xml:space="preserve">
<style type="text/css">
	.st0{fill:#001A70;}
</style>
<g>
	<g>
		<g>
			<g>
				<g>
					<path class="st0" d="M30.6,86.7c-3.9,0-7.1-3.2-7.1-7.1V30.2c0-4.1,3.2-7.2,7.2-7.2h1.4c3.7,0,5.7,2,7.4,4.1l25.4,33.6V29.9
						c0-3.9,3.2-7.1,7.1-7.1c3.9,0,7.1,3.2,7.1,7.1v49.4c0,4.1-3.2,7.2-7.2,7.2h-0.4c-3.7,0-5.7-2-7.4-4.1L37.7,47.5v32.1
						C37.7,83.5,34.5,86.7,30.6,86.7z M30.7,23.8c-3.6,0-6.4,2.8-6.4,6.4v49.4c0,3.5,2.8,6.3,6.3,6.3c3.5,0,6.3-2.8,6.3-6.3V45.1
						l27.9,36.8c1.8,2.3,3.6,3.8,6.7,3.8h0.4c3.6,0,6.4-2.8,6.4-6.4V29.9c0-3.5-2.8-6.3-6.3-6.3c-3.5,0-6.3,2.8-6.3,6.3v33.2
						L38.8,27.6c-1.8-2.3-3.6-3.8-6.7-3.8H30.7z"/>
				</g>
				<g>
					<line class="st0" x1="77.8" y1="69.4" x2="66.7" y2="65"/>

						<rect x="71.9" y="61.2" transform="matrix(0.3734 -0.9277 0.9277 0.3734 -17.076 109.1222)" class="st0" width="0.6" height="11.9"/>
				</g>
				<g>

						<rect x="52.2" y="44.9" transform="matrix(0.4984 -0.867 0.867 0.4984 -17.8048 71.0753)" class="st0" width="0.6" height="12.1"/>
				</g>
				<g>

						<rect x="27.9" y="27.7" transform="matrix(0.9819 -0.1892 0.1892 0.9819 -6.042 5.9605)" class="st0" width="0.6" height="13.8"/>
				</g>
				<g>

						<rect x="41.2" y="32.7" transform="matrix(0.7507 -0.6606 0.6606 0.7507 -16.9951 37.7339)" class="st0" width="0.6" height="17.4"/>
				</g>
				<g>
					<polygon class="st0" points="66.7,65.3 52.6,64.5 52.7,63.9 66.8,64.7 					"/>
				</g>
				<g>

						<rect x="31.9" y="41" transform="matrix(0.9482 -0.3176 0.3176 0.9482 -14.0619 12.7935)" class="st0" width="0.6" height="17.1"/>
				</g>
				<g>

						<rect x="33.3" y="69" transform="matrix(0.7191 -0.6949 0.6949 0.7191 -41.5578 43.9653)" class="st0" width="0.6" height="8.8"/>
				</g>
				<g>

						<rect x="41.8" y="41.6" transform="matrix(0.2139 -0.9768 0.9768 0.2139 -12.5832 77.9374)" class="st0" width="0.6" height="10.5"/>
				</g>
				<g>

						<rect x="26.1" y="63.6" transform="matrix(0.3257 -0.9455 0.9455 0.3257 -38.3637 74.0949)" class="st0" width="13.3" height="0.6"/>
				</g>
				<g>

						<rect x="49.7" y="47.5" transform="matrix(0.9492 -0.3146 0.3146 0.9492 -15.0963 18.569)" class="st0" width="0.6" height="17.1"/>
				</g>
				<g>
					<polygon class="st0" points="65.6,33 65.3,32.5 74.6,25.9 74.9,26.4 					"/>
				</g>
				<g>
					<line class="st0" x1="67.8" y1="49.5" x2="78.1" y2="55.5"/>

						<rect x="72.6" y="46.5" transform="matrix(0.502 -0.8649 0.8649 0.502 -9.0754 89.2045)" class="st0" width="0.6" height="11.9"/>
				</g>
				<g>

						<rect x="70.3" y="64.1" transform="matrix(0.9027 -0.4303 0.4303 0.9027 -24.5805 37.4839)" class="st0" width="0.6" height="18"/>
				</g>
				<g>

						<rect x="57.6" y="70.6" transform="matrix(0.4089 -0.9126 0.9126 0.4089 -26.8376 100.3621)" class="st0" width="13" height="0.6"/>
				</g>
				<g>

						<rect x="22.7" y="76.1" transform="matrix(0.2444 -0.9697 0.9697 0.2444 -52.1276 85.8694)" class="st0" width="12.7" height="0.6"/>
				</g>
				<g>

						<rect x="65" y="59.9" transform="matrix(0.7674 -0.6412 0.6412 0.7674 -21.7623 60.4345)" class="st0" width="14.8" height="0.6"/>
				</g>
				<g>
					<line class="st0" x1="26.9" y1="27.8" x2="38.7" y2="26.7"/>

						<rect x="26.9" y="26.9" transform="matrix(0.9953 -9.716341e-02 9.716341e-02 0.9953 -2.4915 3.3165)" class="st0" width="11.9" height="0.6"/>
				</g>
				<g>

						<rect x="63.9" y="43.4" transform="matrix(0.3732 -0.9277 0.9277 0.3732 3.4097 92.4334)" class="st0" width="12.5" height="0.6"/>
				</g>
				<g>

						<rect x="27.7" y="61.5" transform="matrix(0.8436 -0.537 0.537 0.8436 -31.1867 25.3924)" class="st0" width="0.6" height="9.6"/>
				</g>
				<g>

						<rect x="75.2" y="36.6" transform="matrix(0.7163 -0.6978 0.6978 0.7163 -7.178 64.2897)" class="st0" width="0.6" height="8.7"/>
				</g>
				<g>

						<rect x="68.6" y="31" transform="matrix(0.5927 -0.8054 0.8054 0.5927 -0.3504 69.9069)" class="st0" width="0.6" height="8.7"/>
				</g>
				<g>

						<rect x="21.5" y="46.2" transform="matrix(0.4298 -0.9029 0.9029 0.4298 -26.5263 50.9559)" class="st0" width="11.2" height="0.6"/>
				</g>
				<g>

						<rect x="32.9" y="30.5" transform="matrix(0.3402 -0.9404 0.9404 0.3402 -4.35 55.2937)" class="st0" width="8.7" height="0.6"/>
				</g>
				<g>
					<line class="st0" x1="35.7" y1="34.8" x2="45.3" y2="36.8"/>
					<rect x="40.3" y="30.9" transform="matrix(0.2 -0.9798 0.9798 0.2 -2.6555 68.3799)" class="st0" width="0.6" height="9.8"/>
				</g>
				<g>
					<path class="st0" d="M63.4,49.5c0,2.4,1.9,4.4,4.3,4.4c2.4,0,4.3-2,4.3-4.4c0-2.4-1.9-4.4-4.3-4.4
						C65.4,45.1,63.4,47.1,63.4,49.5z"/>
				</g>
				<g>
					<path class="st0" d="M58.6,76.8c0,1.5,1.3,2.8,2.8,2.8c1.6,0,2.8-1.3,2.8-2.8c0-1.6-1.3-2.8-2.8-2.8
						C59.8,74,58.6,75.3,58.6,76.8z"/>
				</g>
				<g>
					<path class="st0" d="M75.3,69.4c0,1.4,1.1,2.5,2.5,2.5c1.4,0,2.5-1.1,2.5-2.5c0-1.4-1.1-2.6-2.5-2.6
						C76.4,66.9,75.3,68,75.3,69.4z"/>
				</g>
				<g>
					<path class="st0" d="M69.7,26.1c0,2.8,2.3,5.1,5.1,5.1c2.8,0,5.1-2.3,5.1-5.1c0-2.8-2.3-5.1-5.1-5.1
						C71.9,21,69.7,23.3,69.7,26.1z"/>
				</g>
				<g>
					<path class="st0" d="M25.8,41.4c0,2,1.6,3.7,3.7,3.7c2,0,3.7-1.7,3.7-3.7c0-2-1.6-3.7-3.7-3.7C27.5,37.7,25.8,39.4,25.8,41.4z"
						/>
				</g>
				<g>
					<path class="st0" d="M61.9,65c0,2.7,2.1,4.8,4.8,4.8c2.7,0,4.8-2.1,4.8-4.8c0-2.6-2.1-4.8-4.8-4.8C64.1,60.2,61.9,62.3,61.9,65
						z"/>
				</g>
				<g>
					<path class="st0" d="M68.7,81.2c0,3.2,2.6,5.8,5.8,5.8c3.2,0,5.8-2.6,5.8-5.8c0-3.2-2.6-5.8-5.8-5.8
						C71.3,75.4,68.7,78,68.7,81.2z"/>
				</g>
				<g>
					<path class="st0" d="M22.9,82.4c0,2.5,2.1,4.6,4.6,4.6c2.5,0,4.6-2.1,4.6-4.6c0-2.5-2.1-4.6-4.6-4.6
						C24.9,77.7,22.9,79.8,22.9,82.4z"/>
				</g>
				<g>
					<circle class="st0" cx="36.5" cy="76.5" r="2.5"/>
				</g>
				<g>
					<circle class="st0" cx="30.5" cy="70.3" r="2.1"/>
				</g>
				<g>
					<circle class="st0" cx="37" cy="45.7" r="2.2"/>
				</g>
				<g>
					<circle class="st0" cx="35.7" cy="34.8" r="2.4"/>
				</g>
				<g>
					<circle class="st0" cx="26.9" cy="27.8" r="4.2"/>
				</g>
				<g>
					<circle class="st0" cx="45.4" cy="36.8" r="2.7"/>
				</g>
				<g>
					<circle class="st0" cx="38.7" cy="26.6" r="1.8"/>
				</g>
				<g>
					<circle class="st0" cx="24.7" cy="51.6" r="2.3"/>
				</g>
				<g>
					<circle class="st0" cx="34.9" cy="57.6" r="4.1"/>
				</g>
				<g>
					<circle class="st0" cx="25.4" cy="62.2" r="3.1"/>
				</g>
				<g>
					<circle class="st0" cx="78.5" cy="44.1" r="1.8"/>
				</g>
				<g>
					<circle class="st0" cx="78.1" cy="55.5" r="2.3"/>
				</g>
				<g>
					<circle class="st0" cx="72.4" cy="37.9" r="2.9"/>
				</g>
				<g>
					<circle class="st0" cx="65.5" cy="32.7" r="2.1"/>
				</g>
				<g>
					<circle class="st0" cx="57.8" cy="53.9" r="3.2"/>
				</g>
				<g>
					<circle class="st0" cx="47.3" cy="47.9" r="3.9"/>
				</g>
				<g>
					<circle class="st0" cx="52.7" cy="64.2" r="3.7"/>
				</g>
			</g>
		</g>
		<g>
			<g>
				<g>
					<g>
						<g>
							<g>
								<path class="st0" d="M288.3,23.9c0,1.5-1,2.3-2.4,2.3c-1.3,0-2.4-0.9-2.4-2.3c0-1.5,1-2.4,2.4-2.4
									C287.3,21.6,288.3,22.4,288.3,23.9z M284,23.9c0,1.3,0.8,1.9,1.9,1.9c1.1,0,1.9-0.7,1.9-1.9c0-1.3-0.8-1.9-1.9-1.9
									C284.8,22,284,22.7,284,23.9z M287.1,23.3c0,0.4-0.3,0.7-0.7,0.8c0,0,0.1,0.1,0.3,0.3l0.1,0.3c0.1,0.2,0.2,0.3,0.4,0.3
									l0,0.3H287c-0.4,0-0.6-0.2-0.7-0.5l-0.1-0.3c-0.1-0.2-0.2-0.3-0.4-0.3h-0.3v1H285v-2.8h1.1
									C286.8,22.5,287.1,22.9,287.1,23.3z M285.5,22.9v1h0.5c0.5,0,0.7-0.2,0.7-0.5c0-0.3-0.1-0.5-0.6-0.5H285.5z"/>
							</g>
						</g>
					</g>
				</g>
			</g>
		</g>
		<g>
			<g>
				<g>
					<path class="st0" d="M109.7,23v15.7l-8-14.3c-0.5-1-1.2-1.5-2.2-1.5h-2.8c-1.2,0-2,0.8-2,2v21h4.6V30.2l8,14.2
						c0.5,0.9,1.2,1.5,2.2,1.5h2.8c1.2,0,2-0.8,2-2V23H109.7z M218.8,43.9h-6.6H212v-8.6h7c3.3,0,5.2,1.6,5.2,4.1
						C224.2,42,222.5,43.9,218.8,43.9z M212,25h6.5c2.9,0,4.5,1.8,4.5,4c0,2.2-1.4,4.4-4.6,4.4H212V25z M222.4,34
						c1.8-1,2.8-2.9,2.8-5.2c0-3.6-2.6-5.8-6.5-5.8h-6.9c-1.4,0-2.2,0.8-2.2,2v18.8c0,1.3,0.9,2.1,2.3,2.1h0.2h6.8
						c4.8,0,7.6-2.6,7.6-6.5C226.6,36.7,225,34.9,222.4,34z M279.9,46.1c0.9,0,1.6-0.5,1.6-1.7V23h-2.2v19.7l-12.2-18.9
						c-0.4-0.6-1-1-1.8-1c-1,0-1.6,0.5-1.6,1.7V46h2.2V26.2l12.3,18.9C278.6,45.8,279.1,46.1,279.9,46.1z M248.6,44.2
						c-5,0-8.2-3.5-8.2-9.6c0-6.1,3-9.6,8-9.6c5,0,8.2,3.5,8.2,9.6C256.7,40.8,253.6,44.2,248.6,44.2z M248.5,46.2
						c6.2,0,10.6-4.1,10.6-11.6c0-7.5-4.2-11.7-10.5-11.7c-6.2,0-10.6,4.2-10.6,11.7C238,42,242.2,46.2,248.5,46.2z M231.1,46h2.4
						V23h-2.4V46z M194.4,42.3c-3.9,0-5.9-2.8-5.9-7.8c0-5,1.9-7.8,5.7-7.8c4,0,5.9,2.8,5.9,7.8C200.1,39.6,198.3,42.3,194.4,42.3z
						 M170.6,34.4l-3.5,0v-7.6l3.6,0c2.7,0,4.2,1.3,4.2,3.7C174.8,32.7,173.4,34.4,170.6,34.4z M179.5,46.1h1.5v-3.4
						c-3.3-0.1-3.4-4.6-6.4-6.1c3.2-0.9,5.2-3.2,5.2-6.6c0-4.6-3.3-7-8.2-7h-6.6c-1.9,0-3,1-3,2.7V46h5.1v-8.2h1.4
						C174,37.7,172.3,46.1,179.5,46.1z M148.1,46.4c6.3,0,9.6-3.3,9.6-8.8V23h-5.3v14.5c0,2.9-1.4,4.4-4.3,4.4
						c-2.8,0-4.3-1.5-4.3-4.4V23h-5.4v14.5C138.5,43.1,141.9,46.4,148.1,46.4z M121.5,46h13.4v-4h-11v-5.8h9.6v-3.8h-9.6V27h11v-4
						h-13.3c-1.9,0-3,1-3,2.7v17.4C118.6,44.9,119.7,46,121.5,46z M194.3,46.2c6.9,0,11.3-4.1,11.3-11.6c0-7.5-4.2-11.7-11.1-11.7
						c-6.9,0-11.3,4.2-11.3,11.7C183.2,42,187.4,46.2,194.3,46.2z"/>
				</g>
			</g>
		</g>
	</g>
</g>
</svg>
